<?xml version="1.0" encoding="UTF-8"?>
<!DOCTYPE svg PUBLIC "-//W3C//DTD SVG 1.1//EN" "http://www.w3.org/Graphics/SVG/1.1/DTD/svg11.dtd">
<!-- Creator: CorelDRAW 2021 (64 Bit) -->
<svg xmlns="http://www.w3.org/2000/svg" xml:space="preserve" width="8.4668mm" height="6.5842mm" version="1.1" style="shape-rendering:geometricPrecision; text-rendering:geometricPrecision; image-rendering:optimizeQuality; fill-rule:evenodd; clip-rule:evenodd"
viewBox="0 0 846.68 658.42"
 xmlns:xlink="http://www.w3.org/1999/xlink"
 xmlns:xodm="http://www.corel.com/coreldraw/odm/2003">
 <defs>
  <style type="text/css">
   <![CDATA[
    .fil2 {fill:#33004A}
    .fil0 {fill:#8B1CDA;fill-rule:nonzero}
    .fil1 {fill:#C24CF5;fill-rule:nonzero}
   ]]>
  </style>
 </defs>
 <g id="Camada_x0020_1">
  <metadata id="CorelCorpID_0Corel-Layer"/>
  <g id="_2221794045232">
   <rect class="fil0" transform="matrix(0.734436 -0.734438 0.734436 0.734438 0.00867218 579.114)" width="768.42" height="128.07"/>
   <rect class="fil1" transform="matrix(0.734436 -0.734438 0.734436 0.734438 188.263 579.114)" width="768.42" height="128.07"/>
  </g>
  <path class="fil2" d="M530.05 263.51c11.24,25.96 16.87,53.43 16.87,82.45 0,29.77 -5.63,57.61 -16.87,83.59 -11.26,25.92 -26.92,48.75 -46.93,68.39 -20.06,19.64 -43.04,35.01 -69,46.08 -12.09,5.2 -24.56,9.14 -37.41,11.9 14.77,3.14 30.15,4.69 46.03,4.69 29.39,0 57.05,-5.53 83.02,-16.59 25.93,-11.07 48.94,-26.44 68.95,-46.08 20.07,-19.64 35.67,-42.47 46.98,-68.39 11.24,-25.98 16.86,-53.82 16.86,-83.59 0,-29.02 -5.62,-56.49 -16.86,-82.45 -11.31,-25.98 -26.91,-48.94 -46.98,-69 -20.01,-20.01 -43.02,-35.77 -68.95,-47.21 -25.97,-11.44 -53.63,-17.2 -83.02,-17.2 -15.88,0 -31.26,1.64 -46.03,4.92 12.85,2.87 25.32,6.94 37.41,12.28 25.92,11.44 48.94,27.2 69,47.21 20.01,20.06 35.67,43.02 46.93,69z"/>
  <path class="fil2" d="M303.54 343.38c0,-16.91 3.24,-32.95 9.65,-48.09 6.47,-15.09 15.42,-28.5 26.91,-40.22 11.43,-11.68 24.75,-20.86 39.9,-27.51 0.22,-0.15 0.51,-0.24 0.79,-0.38 -14.91,-6.42 -30.75,-9.66 -47.58,-9.66 -17.35,0 -33.6,3.38 -48.71,10.04 -15.13,6.65 -28.45,15.83 -39.89,27.51 -11.48,11.72 -20.43,25.13 -26.9,40.22 -5.39,12.66 -8.53,25.98 -9.43,39.85 -0.09,2.71 -0.18,5.48 -0.22,8.24 0,0.38 0,0.76 0,1.13 0.13,16.92 3.37,32.81 9.65,47.58 6.47,15.15 15.42,28.45 26.9,39.89 11.44,11.48 24.76,20.44 39.89,26.91 15.11,6.42 31.36,9.65 48.71,9.65 16.83,0 32.67,-3.08 47.58,-9.32 -0.28,-0.1 -0.57,-0.24 -0.79,-0.33 -15.15,-6.47 -28.47,-15.43 -39.9,-26.91 -11.49,-11.44 -20.44,-24.74 -26.91,-39.89 -6.41,-15.09 -9.65,-31.36 -9.65,-48.71z"/>
 </g>
</svg>
