<?xml version="1.0" encoding="UTF-8"?>
<!DOCTYPE svg PUBLIC "-//W3C//DTD SVG 1.1//EN" "http://www.w3.org/Graphics/SVG/1.1/DTD/svg11.dtd">
<!-- Creator: CorelDRAW 2021 (64 Bit) -->
<svg xmlns="http://www.w3.org/2000/svg" xml:space="preserve" width="210mm" height="297mm" version="1.1" style="shape-rendering:geometricPrecision; text-rendering:geometricPrecision; image-rendering:optimizeQuality; fill-rule:evenodd; clip-rule:evenodd"
viewBox="0 0 21000 29700"
 xmlns:xlink="http://www.w3.org/1999/xlink"
 xmlns:xodm="http://www.corel.com/coreldraw/odm/2003">
 <defs>
  <style type="text/css">
   <![CDATA[
    .fil0 {fill:url(#id0);fill-rule:nonzero}
    .fil3 {fill:url(#id1);fill-rule:nonzero}
    .fil1 {fill:url(#id2);fill-rule:nonzero}
    .fil2 {fill:url(#id3);fill-rule:nonzero}
   ]]>
  </style>
  <linearGradient id="id0" gradientUnits="userSpaceOnUse" x1="10473.55" y1="14638.4" x2="10473.55" y2="15086.17">
   <stop offset="0" style="stop-opacity:1; stop-color:#C24CF5"/>
   <stop offset="1" style="stop-opacity:1; stop-color:#8B1CDA"/>
  </linearGradient>
  <linearGradient id="id1" gradientUnits="userSpaceOnUse" xlink:href="#id0" x1="10606.72" y1="14906.39" x2="10606.72" y2="14956.32">
  </linearGradient>
  <linearGradient id="id2" gradientUnits="userSpaceOnUse" xlink:href="#id0" x1="10606.72" y1="14773.64" x2="10606.72" y2="14823.56">
  </linearGradient>
  <linearGradient id="id3" gradientUnits="userSpaceOnUse" xlink:href="#id0" x1="10606.72" y1="14827.54" x2="10606.72" y2="14877.45">
  </linearGradient>
 </defs>
 <g id="Camada_x0020_1">
  <metadata id="CorelCorpID_0Corel-Layer"/>
  <path class="fil0" d="M10645.52 14651.56c-51.59,0 -107.16,10.59 -145.52,39.69 -38.36,-29.1 -93.93,-39.69 -145.52,-39.69 -38.37,0 -79.11,5.82 -113.24,20.9 -19.32,8.74 -32.28,27.52 -32.28,48.95l0 298.45c0,34.4 32.28,59.8 65.61,51.33 25.93,-6.61 53.45,-9.52 79.91,-9.52 41.27,0 85.2,6.88 120.65,24.34 15.87,7.94 33.87,7.94 49.48,0 35.45,-17.73 79.37,-24.34 120.65,-24.34 26.45,0 53.97,2.91 79.9,9.52 33.34,8.73 65.62,-16.67 65.62,-51.33l0 -298.45c0,-21.43 -12.97,-40.21 -32.28,-48.95 -33.87,-15.08 -74.61,-20.9 -112.98,-20.9zm92.61 336.82c0,16.67 -15.35,28.84 -31.75,25.93 -19.85,-3.71 -40.49,-5.3 -60.86,-5.3 -44.98,0 -109.8,17.2 -145.52,39.69l0 -304.53c35.72,-22.49 100.54,-39.69 145.52,-39.69 24.34,0 48.42,2.38 71.44,7.41 12.17,2.64 21.17,13.49 21.17,25.93l0 250.56z"/>
  <path class="fil1" d="M10552.38 14823.81c-8.46,0 -16.13,-5.3 -18.78,-13.76 -3.44,-10.32 2.38,-21.7 12.7,-24.87 40.75,-13.23 93.4,-17.47 141.82,-11.91 10.84,1.32 18.78,11.11 17.46,21.96 -1.32,10.85 -11.11,18.79 -21.96,17.46 -42.86,-5.02 -89.7,-1.05 -125.15,10.32 -2.12,0.27 -4.23,0.8 -6.09,0.8z"/>
  <path class="fil2" d="M10552.38 14894.19c-8.46,0 -16.13,-5.3 -18.78,-13.76 -3.44,-10.32 2.38,-21.7 12.7,-24.87 40.48,-13.23 93.4,-17.47 141.82,-11.91 10.84,1.32 18.78,11.11 17.46,21.96 -1.32,10.85 -11.11,18.79 -21.96,17.46 -42.86,-5.02 -89.7,-1.06 -125.15,10.32 -2.12,0.53 -4.23,0.8 -6.09,0.8z"/>
  <path class="fil3" d="M10552.38 14964.56c-8.46,0 -16.13,-5.29 -18.78,-13.75 -3.44,-10.32 2.38,-21.7 12.7,-24.87 40.48,-13.23 93.4,-17.47 141.82,-11.91 10.84,1.32 18.78,11.11 17.46,21.96 -1.32,10.85 -11.11,18.52 -21.96,17.46 -42.86,-5.02 -89.7,-1.06 -125.15,10.32 -2.12,0.53 -4.23,0.79 -6.09,0.79z"/>
 </g>
</svg>
