<?xml version="1.0" encoding="UTF-8"?>
<!DOCTYPE svg PUBLIC "-//W3C//DTD SVG 1.1//EN" "http://www.w3.org/Graphics/SVG/1.1/DTD/svg11.dtd">
<!-- Creator: CorelDRAW 2021 (64 Bit) -->
<svg xmlns="http://www.w3.org/2000/svg" xml:space="preserve" width="210mm" height="297mm" version="1.1" style="shape-rendering:geometricPrecision; text-rendering:geometricPrecision; image-rendering:optimizeQuality; fill-rule:evenodd; clip-rule:evenodd"
viewBox="0 0 21000 29700"
 xmlns:xlink="http://www.w3.org/1999/xlink"
 xmlns:xodm="http://www.corel.com/coreldraw/odm/2003">
 <defs>
  <style type="text/css">
   <![CDATA[
    .fil0 {fill:url(#id0);fill-rule:nonzero}
   ]]>
  </style>
  <linearGradient id="id0" gradientUnits="userSpaceOnUse" x1="10471.49" y1="14585.42" x2="10471.49" y2="15114.58">
   <stop offset="0" style="stop-opacity:1; stop-color:#C24CF5"/>
   <stop offset="1" style="stop-opacity:1; stop-color:#8B1CDA"/>
  </linearGradient>
 </defs>
 <g id="Camada_x0020_1">
  <metadata id="CorelCorpID_0Corel-Layer"/>
  <path class="fil0" d="M10517.2 14947.1c3.7,-9.52 1.32,-20.37 -6.09,-27.78l-55.3 -54.5 0.8 -0.8c46.04,-51.33 78.84,-110.33 98.16,-172.77l51.33 0c14.29,0 26.19,-11.91 26.19,-26.19l0 -0.53c0,-14.29 -11.9,-26.2 -26.19,-26.2l-159.02 0 0 -26.46c0,-14.55 -11.9,-26.45 -26.46,-26.45 -14.55,0 -26.45,11.9 -26.45,26.45l0 26.46 -159.02 0c-14.29,0 -26.19,11.91 -26.19,26.2 0,14.55 11.9,26.19 26.19,26.19l269.35 0c-17.73,51.33 -45.78,99.75 -83.88,142.08 -21.43,-23.55 -39.42,-49.21 -54.5,-76.2 -4.23,-7.67 -11.91,-12.43 -20.64,-12.43 -18.25,0 -29.89,19.84 -20.9,35.72 16.67,29.89 37.04,58.47 60.86,84.93l-115.63 114.03c-10.58,10.32 -10.58,27.25 0,37.57 10.32,10.32 26.99,10.32 37.57,0l113.24 -113.5 53.45 53.44c13.49,13.5 36.51,8.47 43.13,-9.26l0 0zm128.32 -150.02c-15.87,0 -30.16,9.79 -35.72,24.87l-97.1 259.3c-6.35,16.14 5.82,33.33 23.02,33.33 10.32,0 19.58,-6.35 23.28,-16.14l23.55 -63.23 125.68 0 23.81 63.23c3.7,9.53 12.96,16.14 23.28,16.14 17.2,0 29.37,-17.19 23.29,-33.33l-97.11 -259.3c-5.82,-15.08 -20.1,-24.87 -35.98,-24.87l0 0zm-42.86 185.21l42.86 -114.56 42.86 114.56 -85.72 0 0 0z"/>
 </g>
</svg>
