<?xml version="1.0" encoding="UTF-8"?>
<!DOCTYPE svg PUBLIC "-//W3C//DTD SVG 1.1//EN" "http://www.w3.org/Graphics/SVG/1.1/DTD/svg11.dtd">
<!-- Creator: CorelDRAW 2021 (64 Bit) -->
<svg xmlns="http://www.w3.org/2000/svg" xml:space="preserve" width="29.2946mm" height="3.2172mm" version="1.1" style="shape-rendering:geometricPrecision; text-rendering:geometricPrecision; image-rendering:optimizeQuality; fill-rule:evenodd; clip-rule:evenodd"
viewBox="0 0 2929.46 321.72"
 xmlns:xlink="http://www.w3.org/1999/xlink"
 xmlns:xodm="http://www.corel.com/coreldraw/odm/2003">
 <defs>
  <style type="text/css">
   <![CDATA[
    .fil1 {fill:black}
    .fil2 {fill:#1C1C1C}
    .fil0 {fill:black;fill-rule:nonzero}
   ]]>
  </style>
 </defs>
 <g id="Camada_x0020_1">
  <metadata id="CorelCorpID_0Corel-Layer"/>
  <g id="_2218460059808">
   <g>
    <path class="fil0" d="M420.55 132.41l0 179 -41.66 0 0 -308.94 0.41 0 147.86 209.85 149.95 -209.85 0.82 0 0 308.94 -42.89 0 0 -185.8 -108.07 153.63 -0.83 0 -105.59 -146.83zm676.46 29.69c0,-20.63 3.92,-40.15 11.75,-58.57 7.84,-18.43 18.77,-34.72 32.8,-48.88 14.02,-14.16 30.24,-25.3 48.67,-33.41 18.42,-8.11 38.08,-12.17 58.98,-12.17 20.9,0 40.63,4.06 59.19,12.17 18.56,8.11 34.92,19.25 49.09,33.41 14.16,14.16 25.23,30.45 33.2,48.88 7.98,18.42 11.96,37.94 11.96,58.57 0,21.17 -3.98,40.97 -11.96,59.39 -7.97,18.43 -19.04,34.65 -33.2,48.68 -14.17,14.02 -30.53,24.95 -49.09,32.79 -18.56,7.83 -38.29,11.75 -59.19,11.75 -20.9,0 -40.56,-3.92 -58.98,-11.75 -18.43,-7.84 -34.65,-18.63 -48.67,-32.38 -14.03,-13.75 -24.96,-29.91 -32.8,-48.47 -7.83,-18.56 -11.75,-38.56 -11.75,-60.01zm44.55 0.41c0,20.35 4.81,38.91 14.43,55.68 9.63,16.78 22.69,30.11 39.19,40.01 16.5,9.9 34.92,14.85 55.27,14.85 20.07,0 38.22,-4.95 54.45,-14.85 16.22,-9.9 29.14,-23.23 38.77,-40.01 9.62,-16.77 14.44,-35.47 14.44,-56.09 0,-20.63 -4.89,-39.39 -14.65,-56.31 -9.76,-16.91 -22.82,-30.31 -39.18,-40.21 -16.36,-9.9 -34.58,-14.85 -54.66,-14.85 -20.34,0 -38.7,5.02 -55.06,15.06 -16.36,10.03 -29.29,23.51 -38.77,40.42 -9.49,16.91 -14.23,35.68 -14.23,56.3zm546.5 60.5l-0.8 -210.64 42.9 0 0 309.35 -1.24 0 -217.75 -217.36 0.79 207.05 -43.31 0 0 -308.53 1.65 0 217.76 220.13zm282.39 13.33l-112.63 0 -30.73 75.07 -42.9 0 131.58 -311.42 2.48 0 131.58 311.42 -49.91 0 -29.47 -75.07zm-97.43 -37.12l82.86 0 -40.56 -103.32 -42.3 103.32zm370.76 -6.15l74.16 118.34 -50.33 0 -69.1 -107.81c-2.48,0.1 -5.02,0.16 -7.62,0.16l-44.13 0 0 107.65 -42.9 0 0 -299.04 81.26 0c20.9,0 39.46,3.64 55.68,10.93 16.23,7.29 28.95,17.87 38.16,31.76 9.21,13.89 13.82,31 13.82,51.35 0,11.83 -1.79,23.51 -5.37,35.06 -3.57,11.55 -9.28,22 -17.12,31.35 -6.84,8.17 -15.68,14.92 -26.51,20.25zm-53.71 -30.97c15.4,0 27.29,-2.96 35.68,-8.87 8.39,-5.91 14.23,-13.06 17.53,-21.45 3.3,-8.39 4.95,-16.29 4.95,-23.72 0,-5.5 -0.96,-11.34 -2.89,-17.53 -1.92,-6.18 -5.02,-12.1 -9.28,-17.73 -4.26,-5.64 -9.97,-10.18 -17.12,-13.62 -7.15,-3.43 -15.95,-5.15 -26.4,-5.15l-45.78 0 0 108.07 43.31 0zm161.28 -149.73l199.22 0 0 41.66 -79.19 0 0 257.38 -43.31 0 0 -257.38 -76.72 0 0 -41.66z"/>
    <g>
     <path class="fil1" d="M973.66 102.91c8.11,18.7 12.16,38.49 12.16,59.39 0,21.45 -4.05,41.53 -12.16,60.22 -8.12,18.7 -19.39,35.13 -33.83,49.29 -14.43,14.17 -31,25.23 -49.7,33.21 -8.72,3.72 -17.71,6.57 -26.96,8.55 10.66,2.28 21.72,3.41 33.17,3.41 21.17,0 41.11,-3.99 59.81,-11.96 18.7,-7.98 35.26,-19.04 49.7,-33.21 14.44,-14.16 25.71,-30.59 33.82,-49.29 8.11,-18.69 12.17,-38.77 12.17,-60.22 0,-20.9 -4.06,-40.69 -12.17,-59.39 -8.11,-18.7 -19.38,-35.27 -33.82,-49.71 -14.44,-14.43 -31,-25.78 -49.7,-34.03 -18.7,-8.24 -38.64,-12.37 -59.81,-12.37 -11.45,0 -22.51,1.18 -33.17,3.53 9.25,2.05 18.24,5 26.96,8.84 18.7,8.25 35.27,19.6 49.7,34.03 14.44,14.44 25.71,31.01 33.83,49.71z"/>
     <path class="fil1" d="M810.45 160.45c0,-12.19 2.33,-23.73 6.98,-34.63 4.65,-10.91 11.1,-20.57 19.36,-28.98 8.26,-8.42 17.84,-15.03 28.74,-19.84 0.2,-0.09 0.4,-0.18 0.59,-0.26 -10.73,-4.64 -22.15,-6.96 -34.27,-6.96 -12.51,0 -24.22,2.41 -35.12,7.22 -10.9,4.81 -20.48,11.42 -28.74,19.84 -8.25,8.41 -14.71,18.07 -19.36,28.98 -3.88,9.11 -6.15,18.68 -6.78,28.69 -0.1,1.97 -0.16,3.95 -0.18,5.94 0,0.27 -0.01,0.54 -0.01,0.81 0.1,12.2 2.42,23.64 6.97,34.3 4.65,10.9 11.11,20.48 19.36,28.74 8.26,8.26 17.84,14.71 28.74,19.36 10.9,4.65 22.61,6.98 35.12,6.98 12.12,0 23.54,-2.25 34.27,-6.73 -0.19,-0.08 -0.4,-0.17 -0.59,-0.25 -10.9,-4.65 -20.48,-11.1 -28.74,-19.36 -8.26,-8.26 -14.71,-17.84 -19.36,-28.74 -4.65,-10.9 -6.98,-22.61 -6.98,-35.11z"/>
    </g>
   </g>
   <g>
    <polygon class="fil1" points="219.51,2.79 134.94,2.78 2.3,160.86 86.87,160.86 "/>
    <polygon class="fil2" points="219.51,318.93 134.94,318.94 2.3,160.86 86.87,160.86 "/>
   </g>
   <g>
    <polygon class="fil1" points="2709.95,2.79 2794.52,2.78 2927.16,160.86 2842.59,160.86 "/>
    <polygon class="fil2" points="2709.95,318.93 2794.52,318.94 2927.16,160.86 2842.59,160.86 "/>
   </g>
  </g>
 </g>
</svg>
